<svg width="55" height="54" fill="none" xmlns="http://www.w3.org/2000/svg"><path fill-rule="evenodd" clip-rule="evenodd" d="M54.367 27.146c0 14.66-12.107 26.543-27.042 26.543C12.391 53.689.284 41.805.284 27.146.284 12.486 12.39.603 27.325.603s27.042 11.884 27.042 26.543zm-2.164 0c0 13.486-11.138 24.42-24.878 24.42S2.447 40.631 2.447 27.145c0-13.486 11.138-24.42 24.878-24.42s24.878 10.934 24.878 24.42zm-29.205-5.309V22.9h2.164v16.987h-2.163v1.062h8.652v-1.062h-2.164v-18.05H23zm7.572-5.308c0 1.759-1.453 3.185-3.245 3.185s-3.245-1.426-3.245-3.185c0-1.76 1.453-3.185 3.245-3.185s3.245 1.426 3.245 3.185z" fill="#2B4074"/></svg>